<?xml version="1.0" encoding="UTF-8"?>
<!DOCTYPE svg PUBLIC "-//W3C//DTD SVG 1.1//EN" "http://www.w3.org/Graphics/SVG/1.1/DTD/svg11.dtd">
<!-- Creator: CorelDRAW 2021 (64 Bit) -->
<svg xmlns="http://www.w3.org/2000/svg" xml:space="preserve" width="418.108mm" height="44.649mm" version="1.1" style="shape-rendering:geometricPrecision; text-rendering:geometricPrecision; image-rendering:optimizeQuality; fill-rule:evenodd; clip-rule:evenodd"
viewBox="0 0 4181080 446490"
 xmlns:xlink="http://www.w3.org/1999/xlink"
 xmlns:xodm="http://www.corel.com/coreldraw/odm/2003">
 <defs>
  <style type="text/css">
   <![CDATA[
    .fil0 {fill:#A5D145}
    .fil2 {fill:#7D6951;fill-rule:nonzero}
    .fil1 {fill:#A5D145;fill-rule:nonzero}
   ]]>
  </style>
 </defs>
 <g id="Camada_x0020_1">
  <metadata id="CorelCorpID_0Corel-Layer"/>
  <g id="_2001222468544">
   <g>
    <path class="fil0" d="M538444 129265c-83206,30708 -150813,-128525 -314253,-128525 -142628,8473 -225390,107702 -224178,225105 1169,113320 85086,213638 237545,219902 104212,0 222845,-59734 337328,-136038 154029,-102665 269769,-228361 427964,-228361 97259,0 183964,61908 183964,140410 0,97109 -89494,135096 -150670,135096 -125383,0 -149995,-63275 -205932,-78262 89049,17378 96934,55792 203527,57303 48522,687 79274,-22947 82498,-78850 0,-79414 -74718,-104454 -125581,-105590 -82173,-1833 -190499,44281 -291198,167255 103268,-33184 137441,127780 307569,127780 118815,0 233273,-84691 233273,-232533 0,-106047 -100099,-209934 -240705,-213957 -125479,0 -266364,102110 -406919,200136 -120474,84019 -239819,166120 -359025,166120 -122335,-2226 -182014,-82462 -182014,-149325 0,-82025 72275,-125502 155622,-128133 35643,-1126 69481,9044 102873,24549 29027,13475 49547,35068 86959,48608 -37321,7804 -74961,-38297 -175803,-52425 -45013,-6306 -98332,11798 -99819,82142 0,76441 78858,107180 136310,104120 77202,-4106 185705,-54385 280665,-166527z"/>
    <path class="fil1" d="M2329807 7859c-23107,0 -42976,4257 -59598,12769 -6892,4056 -13782,8819 -20678,14293 -6890,5472 -12973,11455 -18244,17940 -9327,12970 -16624,26557 -21895,40748 -1619,6485 -2940,12973 -3950,19458 -1016,6490 -1927,13785 -2742,21898l0 268807c0,9322 3649,18241 10949,26756 7301,7300 16217,10949 26759,10949 9327,0 17842,-3649 25544,-10949 7702,-7298 11557,-16217 11557,-26756l0 -268807 0 -14601c400,-2833 1114,-5673 2125,-8512 1013,-2839 2839,-5879 5271,-9120 4056,-5678 9120,-10137 15103,-13383 5877,-3244 15608,-5475 29193,-6689 11451,0 20678,2230 27668,6689 7806,3651 13484,8109 16929,13383 3548,5271 5472,11147 5877,17632l1825 14601 0 268807c0,9322 3649,18241 10947,26756 7303,7300 16217,10949 26758,10949 9330,0 17845,-3649 25547,-10949 7705,-7298 11555,-16217 11555,-26756l0 -268807c0,-13786 -1926,-27674 -5779,-41663 -3850,-13984 -11253,-27471 -22200,-40441 -8919,-12568 -22096,-23311 -39530,-32233 -7298,-4056 -16013,-7194 -26147,-9428 -10137,-2230 -21083,-3341 -32844,-3341z"/>
    <path class="fil1" d="M2158913 8869c-4054,-809 -7295,-1217 -9727,-1217 -6083,0 -12671,2133 -19765,6388 -7099,4257 -12470,11655 -16119,22199l-52909 213465 -52908 -213465c-2434,-10139 -8113,-17842 -17032,-23112 -6080,-3649 -12362,-5475 -18850,-5475 -1624,0 -4866,408 -9729,1217 -9734,2432 -17233,8211 -22506,17133 -3242,7702 -4864,17230 -4864,28579l89399 358312c810,3648 2432,7294 4866,10946 2432,3649 5779,7194 10036,10645 4255,3447 11452,5773 21588,6993 8920,0 16625,-2432 23113,-7300 6890,-6081 11348,-13177 13378,-21284l89398 -358312c810,-4864 1218,-8306 1218,-10338 0,-6080 -1823,-12161 -5472,-18241 -4866,-7705 -12571,-13484 -23115,-17133z"/>
    <path class="fil1" d="M1842671 314371c0,5675 -605,10538 -1823,14595 0,5273 -1725,10644 -5172,16116 -3443,5475 -9222,10846 -17331,16117 -6890,3651 -16014,5474 -27365,5474 -11761,0 -20882,-1725 -27372,-5173 -6485,-3442 -11960,-8411 -16416,-14899 -2839,-4051 -5273,-9930 -7297,-17635 0,-6488 0,-11354 0,-14595l0 -179406 0 -14601c402,-2833 1111,-5673 2125,-8512 1016,-2839 2741,-5879 5172,-9120 4051,-5678 9020,-10137 14900,-13383 5876,-3244 15505,-5475 28888,-6689 11351,0 20475,2230 27365,6689 7702,3651 13280,8109 16725,13383 3445,5271 5371,11147 5778,17632l1823 14601 0 179406zm-51691 -306512c-23115,0 -42981,4257 -59602,12769 -6890,4056 -13786,8819 -20676,14293 -6895,5472 -12976,11455 -18244,17940 -9327,12970 -16624,26557 -21895,40748 -1622,6485 -2942,12973 -3956,19458 -1010,6490 -1923,13785 -2733,21898l0 179406c0,10136 405,17537 1217,22199 807,4660 2633,11248 5472,19763 4458,15002 11658,28581 21588,40747 9936,12164 23007,22703 39227,31625 8109,3649 17230,6691 27367,9123 10139,2429 20881,3649 32235,3649 23920,0 43889,-4260 59905,-12772 16010,-8518 28885,-18953 38614,-31323 9730,-12362 17030,-26047 21893,-41049 1622,-6083 3043,-13074 4260,-20980 1217,-7909 1823,-14899 1823,-20982l0 -179406c0,-13786 -1926,-27674 -5776,-41663 -3850,-13984 -11253,-27471 -22200,-40441 -8919,-12568 -22096,-23311 -39530,-32233 -7298,-4056 -16016,-7194 -26153,-9428 -10131,-2230 -21083,-3341 -32836,-3341z"/>
    <path class="fil1" d="M1513052 7859c-23112,0 -42978,4257 -59602,12769 -6890,4056 -13786,8819 -20676,14293 -6895,5472 -12975,11455 -18249,17940 -9321,12970 -16619,26557 -21890,40748 -1624,6485 -2939,12973 -3956,19458 -1013,6490 -1923,13785 -2733,21898l0 268807c0,9322 3649,18241 10947,26756 7297,7300 16217,10949 26755,10949 9327,0 17839,-3649 25544,-10949 7705,-7298 11555,-16217 11555,-26756l0 -268807 0 -14601c408,-2833 1114,-5673 2130,-8512 1011,-2839 2839,-5879 5271,-9120 4054,-5678 9123,-10137 15103,-13383 5879,-3244 15611,-5475 29193,-6689 11449,0 20675,2230 27666,6689 7808,3651 13484,8109 16931,13383 3549,5271 5472,11147 5880,17632l1823 14601 0 268807c0,9322 3648,18241 10949,26756 7294,7300 16217,10949 26758,10949 9322,0 17836,-3649 25539,-10949 7707,-7298 11555,-16217 11555,-26756l0 -268807c0,-13786 -1927,-27674 -5774,-41663 -3855,-13984 -11253,-27471 -22199,-40441 -8920,-12568 -22097,-23311 -39528,-32233 -7300,-4056 -16019,-7194 -26155,-9428 -10137,-2230 -21083,-3341 -32837,-3341z"/>
   </g>
   <g>
    <path class="fil2" d="M4034521 5068l0 357484 146559 0 0 77455 -234928 0 0 -434939 88369 0zm-245955 434939l2187 -434939 85356 0 0 434939 -87543 0zm-158489 0l-86179 0 0 -357122 -112683 0 0 -77817 310623 0 0 77817 -111761 0 0 357122zm-223430 -312296c0,70894 -30462,104616 -90214,123354l0 1203 106319 187739 -97236 0 -97705 -184120 -41413 0 0 184120 -85519 0 0 -434939 120436 0c29690,0 62154,-1181 92472,7456 50341,14336 92860,58823 92860,115187zm-168012 62629c13609,0 25142,-625 34603,-1970 9457,-1347 17349,-3303 23813,-5917 11954,-4831 20257,-11560 24892,-20080 4578,-8423 6890,-18203 6890,-29229 0,-9413 -1826,-17841 -5480,-25103 -3649,-7260 -9827,-12838 -18505,-17122 -5672,-2799 -12777,-4842 -21324,-6184 -8545,-1345 -19165,-1972 -31777,-1972l-65349 0 0 107577 52237 0zm-363517 174790l169180 0 0 74877 -255843 0 0 -434939 257052 0 0 77127 -170389 0 0 103774 144399 0 0 72570 -144399 0 0 106591zm-310109 74877l-87568 0 0 -434939 259323 0 0 77831 -173660 0 0 103040 147673 0 0 75493 -145768 0 0 178575z"/>
    <path class="fil2" d="M2329418 172452c28568,0 51729,23161 51729,51729 0,28568 -23161,51730 -51729,51730 -28565,0 -51726,-23162 -51726,-51730 0,-28568 23161,-51729 51726,-51729z"/>
   </g>
  </g>
 </g>
</svg>
